<?xml version="1.0" encoding="utf-8"?>
<!-- Generator: Adobe Illustrator 25.0.0, SVG Export Plug-In . SVG Version: 6.00 Build 0)  -->
<svg version="1.1" xmlns="http://www.w3.org/2000/svg" xmlns:xlink="http://www.w3.org/1999/xlink" x="0px" y="0px"
	 viewBox="0 0 30 30" style="enable-background:new 0 0 30 30;" xml:space="preserve">
<style type="text/css">
	.st0{display:none;}
	.st1{display:inline;fill:#C7202F;}
	.st2{display:inline;fill:#FFFFFF;}
	.st3{display:inline;fill:#AFC2D7;}
	.st4{display:inline;fill:#81CCD5;}
	.st5{display:inline;fill:#67C5B1;}
	.st6{display:inline;fill:#253D42;}
	.st7{display:inline;}
	.st8{fill:#C7202F;}
	.st9{fill:#FFFFFF;}
</style>
<g id="Layer_1" class="st0">
	<path class="st1" d="M49.32-19.3c0.63,0,1.25,0,1.88,0c0.09,0.02,0.19,0.05,0.28,0.06c1.39,0.1,2.75,0.38,4.04,0.9
		c5.22,2.11,8.41,5.93,9.51,11.46c0.11,0.54,0.16,1.1,0.23,1.65c0,0.63,0,1.25,0,1.87c-0.02,0.09-0.05,0.19-0.06,0.28
		c-0.09,1.19-0.3,2.36-0.71,3.48c-2,5.53-5.89,8.89-11.65,10.06c-0.54,0.11-1.1,0.16-1.65,0.23c-0.63,0-1.25,0-1.88,0
		c-0.08-0.02-0.17-0.04-0.25-0.05c-0.85-0.14-1.72-0.22-2.56-0.43c-5.64-1.4-10.06-6.2-11.01-11.9c-0.09-0.56-0.16-1.12-0.24-1.67
		c0-0.62,0-1.25,0-1.87c0.02-0.1,0.05-0.21,0.06-0.31c0.08-1.12,0.28-2.23,0.65-3.29c1.97-5.62,5.87-9.04,11.71-10.23
		C48.21-19.17,48.77-19.22,49.32-19.3z M42.03,1.01c0,0.03,0,0.06-0.01,0.09c0.08,0.05,0.16,0.11,0.24,0.15
		c2.91,1.56,5.93,1.81,8.92,0.43c3.69-1.71,5.41-4.83,5.74-8.8c0.03-0.38,0.13-0.67,0.4-0.94c0.34-0.34,0.66-0.69,0.99-1.04
		c0.09-0.1,0.15-0.22,0.23-0.33c-0.01-0.02-0.03-0.04-0.04-0.06c-0.47,0.14-0.94,0.27-1.41,0.41c-0.02-0.04-0.04-0.07-0.06-0.11
		c0.2-0.25,0.42-0.5,0.61-0.76c0.19-0.27,0.35-0.57,0.52-0.85c-0.02-0.02-0.05-0.04-0.07-0.06c-0.08,0.03-0.16,0.05-0.24,0.08
		c-0.5,0.19-1,0.37-1.5,0.57c-0.23,0.09-0.39,0.05-0.58-0.08c-0.57-0.41-1.16-0.77-1.89-0.85c-2.08-0.23-3.89,1.39-3.85,3.48
		c0,0.23,0,0.46,0,0.72c-2.86-0.2-5.12-1.53-7-3.64c-0.76,1.74-0.51,3.25,0.85,4.55C43.83-6,43.79-5.97,43.76-5.94
		c-0.41-0.12-0.82-0.23-1.27-0.36c0.13,1.71,1.02,2.8,2.52,3.45c-0.21,0.03-0.4,0.01-0.58,0.03c-0.21,0.02-0.41,0.07-0.61,0.11
		c0.07,0.21,0.11,0.44,0.23,0.62c0.49,0.77,1.22,1.25,2.06,1.55c0.21,0.07,0.41,0.14,0.66,0.23c-1.03,0.7-2.1,1.13-3.3,1.23
		C42.99,0.96,42.51,0.98,42.03,1.01z"/>
	<path class="st2" d="M42.03,1.01c0.48-0.03,0.97-0.06,1.45-0.1c1.19-0.1,2.27-0.53,3.3-1.23c-0.24-0.08-0.45-0.15-0.66-0.23
		c-0.85-0.31-1.57-0.78-2.06-1.55c-0.11-0.18-0.15-0.41-0.23-0.62c0.2-0.04,0.41-0.09,0.61-0.11c0.18-0.02,0.37,0,0.58-0.03
		c-1.5-0.65-2.39-1.74-2.52-3.45c0.45,0.13,0.86,0.24,1.27,0.36c0.03-0.03,0.06-0.05,0.09-0.08c-1.36-1.31-1.61-2.81-0.85-4.55
		c1.88,2.11,4.14,3.44,7,3.64c0-0.25,0-0.48,0-0.72c-0.04-2.09,1.78-3.71,3.85-3.48c0.74,0.08,1.32,0.44,1.89,0.85
		c0.19,0.14,0.36,0.18,0.58,0.08c0.49-0.21,1-0.39,1.5-0.57c0.08-0.03,0.16-0.05,0.24-0.08c0.02,0.02,0.05,0.04,0.07,0.06
		c-0.17,0.28-0.33,0.58-0.52,0.85c-0.19,0.27-0.4,0.51-0.61,0.76c0.02,0.04,0.04,0.07,0.06,0.11c0.47-0.14,0.94-0.27,1.41-0.41
		c0.01,0.02,0.03,0.04,0.04,0.06c-0.07,0.11-0.14,0.23-0.23,0.33c-0.32,0.35-0.65,0.7-0.99,1.04c-0.26,0.26-0.36,0.56-0.4,0.94
		c-0.32,3.96-2.04,7.09-5.74,8.8c-2.99,1.38-6.01,1.13-8.92-0.43c-0.08-0.04-0.16-0.1-0.24-0.15C42.02,1.07,42.02,1.04,42.03,1.01z"
		/>
	<path class="st2" d="M48.9,18.61c0.63,0,1.25,0,1.88,0c0.09,0.02,0.19,0.05,0.28,0.06c1.39,0.1,2.75,0.38,4.04,0.9
		c5.22,2.11,8.41,5.93,9.51,11.46c0.11,0.54,0.16,1.1,0.23,1.65c0,0.63,0,1.25,0,1.88c-0.02,0.09-0.05,0.19-0.06,0.28
		c-0.09,1.19-0.3,2.36-0.71,3.48c-2,5.53-5.89,8.89-11.65,10.06c-0.54,0.11-1.1,0.16-1.65,0.23c-0.63,0-1.25,0-1.88,0
		c-0.08-0.02-0.17-0.04-0.25-0.05c-0.85-0.14-1.72-0.22-2.56-0.43c-5.64-1.4-10.06-6.2-11.01-11.9c-0.09-0.56-0.16-1.12-0.24-1.67
		c0-0.63,0-1.25,0-1.88c0.02-0.1,0.05-0.21,0.06-0.31c0.08-1.12,0.28-2.23,0.65-3.29c1.97-5.62,5.87-9.04,11.71-10.23
		C47.8,18.74,48.35,18.69,48.9,18.61z M41.61,38.92c0,0.03,0,0.06-0.01,0.09c0.08,0.05,0.16,0.11,0.24,0.15
		c2.91,1.56,5.93,1.81,8.92,0.43c3.69-1.71,5.41-4.83,5.74-8.8c0.03-0.38,0.13-0.67,0.4-0.94c0.34-0.34,0.66-0.69,0.99-1.04
		c0.09-0.1,0.15-0.22,0.23-0.33c-0.01-0.02-0.03-0.04-0.04-0.06c-0.47,0.14-0.94,0.27-1.41,0.41c-0.02-0.04-0.04-0.07-0.06-0.11
		c0.2-0.25,0.42-0.5,0.61-0.76c0.19-0.27,0.35-0.57,0.52-0.85c-0.02-0.02-0.05-0.04-0.07-0.06c-0.08,0.03-0.16,0.05-0.24,0.08
		c-0.5,0.19-1,0.37-1.5,0.57c-0.23,0.09-0.39,0.05-0.58-0.08c-0.57-0.41-1.16-0.77-1.89-0.85c-2.08-0.23-3.89,1.39-3.85,3.48
		c0,0.23,0,0.46,0,0.72c-2.86-0.2-5.12-1.53-7-3.64c-0.76,1.74-0.51,3.25,0.85,4.55c-0.03,0.03-0.06,0.05-0.09,0.08
		c-0.41-0.12-0.82-0.23-1.27-0.36c0.13,1.71,1.02,2.8,2.52,3.45c-0.21,0.03-0.4,0.01-0.58,0.03c-0.21,0.02-0.41,0.07-0.61,0.11
		c0.07,0.21,0.11,0.44,0.23,0.62c0.49,0.77,1.22,1.25,2.06,1.55c0.21,0.07,0.41,0.14,0.66,0.23c-1.03,0.7-2.1,1.13-3.3,1.23
		C42.58,38.87,42.1,38.89,41.61,38.92z"/>
	<path class="st1" d="M41.61,38.92c0.48-0.03,0.97-0.06,1.45-0.1c1.19-0.1,2.27-0.53,3.3-1.23c-0.24-0.08-0.45-0.15-0.66-0.23
		c-0.85-0.31-1.57-0.78-2.06-1.55c-0.11-0.18-0.15-0.41-0.23-0.62c0.2-0.04,0.41-0.09,0.61-0.11c0.18-0.02,0.37,0,0.58-0.03
		c-1.5-0.65-2.39-1.74-2.52-3.45c0.45,0.13,0.86,0.24,1.27,0.36c0.03-0.03,0.06-0.05,0.09-0.08c-1.36-1.31-1.61-2.81-0.85-4.55
		c1.88,2.11,4.14,3.44,7,3.64c0-0.25,0-0.48,0-0.72c-0.04-2.09,1.78-3.71,3.85-3.48c0.74,0.08,1.32,0.44,1.89,0.85
		c0.19,0.14,0.36,0.18,0.58,0.08c0.49-0.21,1-0.39,1.5-0.57c0.08-0.03,0.16-0.05,0.24-0.08c0.02,0.02,0.05,0.04,0.07,0.06
		c-0.17,0.28-0.33,0.58-0.52,0.85c-0.19,0.27-0.4,0.51-0.61,0.76c0.02,0.04,0.04,0.07,0.06,0.11c0.47-0.14,0.94-0.27,1.41-0.41
		c0.01,0.02,0.03,0.04,0.04,0.06c-0.07,0.11-0.14,0.23-0.23,0.33c-0.32,0.35-0.65,0.7-0.99,1.04c-0.26,0.26-0.36,0.56-0.4,0.94
		c-0.32,3.96-2.04,7.09-5.74,8.8c-2.99,1.38-6.01,1.13-8.92-0.43c-0.08-0.04-0.16-0.1-0.24-0.15
		C41.61,38.98,41.61,38.95,41.61,38.92z"/>
</g>
<g id="Layer_6" class="st0">
	<rect x="-36.52" y="4.6" class="st2" width="9.13" height="9.13"/>
	<rect x="-23.92" y="4.58" class="st3" width="9.16" height="9.16"/>
	<rect x="-36.54" y="18.92" class="st1" width="9.16" height="9.16"/>
	<rect x="-23.92" y="18.92" class="st4" width="9.16" height="9.16"/>
	<rect x="-11.7" y="4.58" class="st5" width="9.16" height="9.16"/>
	<rect x="-11.7" y="18.92" class="st6" width="9.16" height="9.16"/>
</g>
<g id="Layer_2" class="st0">
	<g class="st7">
		<path class="st8" d="M30,14.72c0,2.54,0,5.07,0,7.61c0,1.18-0.06,2.36-0.5,3.46c-0.88,2.23-2.5,3.6-4.86,4.03
			c-0.74,0.13-1.5,0.18-2.26,0.19c-4.98,0.02-9.96,0.01-14.94,0.01c-1.31,0-2.6-0.14-3.78-0.74c-1.9-0.96-3.08-2.49-3.45-4.6
			c-0.14-0.78-0.19-1.59-0.19-2.39c-0.02-4.9-0.01-9.79,0-14.69c0-1.18,0.05-2.36,0.5-3.46c0.95-2.33,2.68-3.69,5.17-4.05
			C6.4,0,7.15-0.02,7.88-0.02c4.74-0.01,9.48-0.01,14.23,0c1.22,0,2.44,0.02,3.59,0.46c2.4,0.93,3.79,2.7,4.17,5.25
			c0.08,0.57,0.11,1.16,0.11,1.74c0.01,2.43,0,4.87,0,7.3C29.99,14.72,29.99,14.72,30,14.72z M3.9,14.99c-0.01,0-0.02,0-0.03,0
			c0,1.36-0.01,2.72,0.01,4.09c0.01,0.51,0.03,1.02,0.14,1.52c0.68,3.3,3.42,5.54,6.82,5.56c2.78,0.02,5.56,0.01,8.34-0.01
			c0.57,0,1.14-0.07,1.69-0.2c3.15-0.77,5.25-3.5,5.26-6.82c0.01-2.75,0.01-5.51,0-8.26c0-0.48-0.04-0.96-0.13-1.42
			c-0.67-3.31-3.43-5.56-6.84-5.58c-2.77-0.01-5.54-0.01-8.31,0.01c-0.54,0-1.08,0.06-1.6,0.17c-2.92,0.62-5.18,3.23-5.32,6.21
			C3.84,11.82,3.9,13.41,3.9,14.99z"/>
		<path class="st9" d="M3.9,14.99c0-1.58-0.06-3.16,0.01-4.74c0.14-2.98,2.4-5.59,5.32-6.21c0.52-0.11,1.07-0.17,1.6-0.17
			c2.77-0.02,5.54-0.02,8.31-0.01c3.41,0.02,6.17,2.26,6.84,5.58c0.09,0.46,0.13,0.95,0.13,1.42c0.01,2.75,0.01,5.51,0,8.26
			c-0.01,3.32-2.11,6.05-5.26,6.82c-0.55,0.13-1.13,0.2-1.69,0.2c-2.78,0.02-5.56,0.02-8.34,0.01c-3.4-0.02-6.14-2.26-6.82-5.56
			c-0.1-0.49-0.13-1.01-0.14-1.52c-0.02-1.36-0.01-2.72-0.01-4.09C3.88,14.99,3.89,14.99,3.9,14.99z M14.99,24.23
			c1.39,0,2.78,0,4.17,0c2.86,0,5.04-2.19,5.04-5.05c0-2.79,0-5.57,0-8.36c0-2.86-2.19-5.04-5.05-5.05c-2.78,0-5.56,0-8.34,0
			c-2.84,0-5.03,2.19-5.03,5.04c0,2.8,0,5.59,0,8.39c0,2.84,2.19,5.03,5.03,5.03C12.21,24.23,13.6,24.23,14.99,24.23z"/>
		<path class="st8" d="M14.99,24.23c-1.39,0-2.78,0-4.17,0c-2.84,0-5.03-2.19-5.03-5.03c0-2.8,0-5.59,0-8.39
			c0-2.84,2.19-5.03,5.03-5.04c2.78,0,5.56,0,8.34,0c2.86,0,5.05,2.18,5.05,5.05c0,2.79,0,5.57,0,8.36c0,2.86-2.18,5.05-5.04,5.05
			C17.77,24.23,16.38,24.23,14.99,24.23z M14.97,20.55c3.02,0.02,5.53-2.46,5.56-5.51c0.03-3.02-2.45-5.54-5.49-5.58
			c-3.03-0.03-5.56,2.47-5.57,5.52C9.45,18.02,11.93,20.52,14.97,20.55z M19.72,8.93c0,0.76,0.6,1.37,1.36,1.38
			c0.73,0,1.35-0.6,1.36-1.35c0.01-0.76-0.59-1.38-1.34-1.39C20.33,7.57,19.72,8.17,19.72,8.93z"/>
		<path class="st9" d="M14.97,20.55c-3.04-0.02-5.52-2.53-5.5-5.56c0.01-3.05,2.54-5.55,5.57-5.52c3.04,0.03,5.52,2.55,5.49,5.58
			C20.5,18.08,17.99,20.57,14.97,20.55z M18.61,15.01c0-2.01-1.61-3.62-3.61-3.62c-1.99,0-3.6,1.6-3.6,3.6
			c-0.01,2.01,1.59,3.63,3.6,3.64C17,18.62,18.61,17.02,18.61,15.01z"/>
		<path class="st9" d="M19.73,8.94c0-0.76,0.61-1.36,1.37-1.35c0.75,0.01,1.35,0.62,1.34,1.39c-0.01,0.74-0.62,1.35-1.35,1.34
			C20.33,10.31,19.73,9.69,19.73,8.94z"/>
		<path class="st8" d="M18.61,15.01c0,2.01-1.61,3.62-3.62,3.61c-2,0-3.6-1.62-3.6-3.64c0.01-1.99,1.61-3.6,3.6-3.6
			C17,11.39,18.61,13,18.61,15.01z"/>
	</g>
</g>
<g id="Layer_3" class="st0">
	<path class="st2" d="M13.95,0c0.7,0,1.41,0,2.11,0c0.47,0.06,0.95,0.11,1.41,0.19c2.72,0.47,5.15,1.58,7.24,3.38
		c2.72,2.34,4.42,5.28,5.06,8.82c0.09,0.52,0.15,1.04,0.23,1.56c0,0.7,0,1.41,0,2.11c-0.06,0.47-0.11,0.95-0.2,1.41
		c-0.58,3.35-2.11,6.19-4.59,8.51c-2.15,2-4.68,3.27-7.57,3.79c-0.53,0.09-1.06,0.16-1.58,0.23c-0.7,0-1.41,0-2.11,0
		c-0.34-0.04-0.67-0.08-1.01-0.13c-2.95-0.43-5.57-1.6-7.8-3.57c-2.63-2.32-4.27-5.2-4.9-8.65c-0.1-0.53-0.16-1.06-0.23-1.59
		c0-0.7,0-1.41,0-2.11c0.04-0.34,0.08-0.67,0.13-1.01c0.43-2.92,1.58-5.51,3.52-7.74c2.33-2.67,5.24-4.34,8.74-4.97
		C12.91,0.14,13.43,0.08,13.95,0z M14.55,8.38c-1.85,0.1-4.1,0.2-6.35,0.36c-1.21,0.08-2.03,0.82-2.22,2
		c-0.17,1.07-0.26,2.15-0.32,3.23c-0.1,1.71-0.01,3.41,0.26,5.11c0.18,1.16,0.84,1.88,1.9,2.11c0.33,0.07,0.67,0.12,1.01,0.14
		c1.4,0.08,2.81,0.16,4.21,0.2c2.92,0.08,5.84,0.04,8.74-0.26c1.23-0.13,2.04-0.81,2.24-2.02c0.17-1.07,0.26-2.17,0.31-3.26
		c0.09-1.69,0.01-3.38-0.26-5.05c-0.19-1.2-0.9-1.96-2-2.15c-0.47-0.08-0.95-0.15-1.42-0.17C18.76,8.53,16.86,8.47,14.55,8.38z"/>
	<path class="st1" d="M14.55,8.38c2.31,0.09,4.21,0.15,6.11,0.24c0.48,0.02,0.95,0.09,1.42,0.17c1.1,0.19,1.8,0.95,2,2.15
		c0.27,1.67,0.35,3.36,0.26,5.05c-0.06,1.09-0.14,2.18-0.31,3.26c-0.2,1.22-1.01,1.9-2.24,2.02c-2.91,0.3-5.82,0.33-8.74,0.26
		c-1.4-0.04-2.81-0.12-4.21-0.2c-0.34-0.02-0.68-0.07-1.01-0.14c-1.06-0.23-1.71-0.95-1.9-2.11c-0.27-1.69-0.36-3.4-0.26-5.11
		c0.06-1.08,0.15-2.16,0.32-3.23C6.17,9.56,7,8.82,8.2,8.74C10.45,8.58,12.7,8.48,14.55,8.38z M13.15,12.19c0,1.9,0,3.73,0,5.62
		c1.63-0.94,3.23-1.86,4.88-2.81C16.38,14.05,14.78,13.13,13.15,12.19z"/>
	<path class="st2" d="M13.15,12.19c1.63,0.94,3.23,1.86,4.88,2.81c-1.64,0.95-3.24,1.87-4.88,2.81
		C13.15,15.93,13.15,14.09,13.15,12.19z"/>
	<text transform="matrix(1 0 0 1 16.9366 -3.2764)" class="st7" style="font-family:'MyriadPro-Regular'; font-size:12px;">over</text>
	<text transform="matrix(1 0 0 1 35.8728 26.7615)" class="st7" style="font-family:'MyriadPro-Regular'; font-size:12px;">out</text>
</g>
<g id="Layer_5" class="st0">
	<rect x="3.57" y="2.59" class="st1" width="23.19" height="23.84"/>
	<path class="st2" d="M-0.01,28.18c0-8.79,0-17.58,0-26.37C0.01,1.8,0.02,1.79,0.03,1.77C0.38,0.55,1.11,0,2.38,0
		c8.42,0,16.84,0,25.26,0c0.18,0,0.35,0,0.53,0.03C29.29,0.22,30,1.09,30,2.28c0,8.28,0,16.56,0,24.84c0,0.25,0.01,0.51,0,0.76
		c-0.04,0.87-0.46,1.52-1.24,1.91c-0.18,0.09-0.38,0.14-0.57,0.21c-8.79,0-17.58,0-26.37,0c-0.57-0.16-1.1-0.4-1.42-0.93
		C0.23,28.8,0.13,28.48-0.01,28.18z M12.68,11.68c0,3.69,0,7.33,0,10.98c1.22,0,2.42,0,3.63,0c0-0.94,0-1.85,0-2.77
		c0-1.24,0-2.48,0.03-3.72c0.02-0.67,0.37-1.19,0.92-1.55c1.06-0.71,2.39-0.23,2.74,0.99c0.11,0.41,0.15,0.85,0.16,1.27
		c0.02,1.83,0.01,3.65,0.01,5.48c0,0.1,0,0.21,0,0.3c1.24,0,2.44,0,3.64,0c0-0.1,0.01-0.17,0.01-0.25c0-2,0-4,0-6
		c0-0.4-0.03-0.8-0.08-1.2c-0.26-2.15-1.54-3.51-3.62-3.75c-1.49-0.17-2.76,0.28-3.65,1.56c-0.03,0.04-0.07,0.08-0.15,0.16
		c0-0.46-0.01-0.86,0-1.26c0.01-0.19-0.06-0.26-0.25-0.25c-0.59,0.01-1.17,0-1.76,0C13.77,11.68,13.24,11.68,12.68,11.68z
		 M10.63,22.68c0.01-0.08,0.01-0.13,0.01-0.18c0-3.52,0-7.05,0-10.57c0-0.19-0.06-0.25-0.25-0.25c-1.06,0.01-2.13,0-3.19,0
		c-0.07,0-0.13,0.02-0.2,0.03c0,3.66,0,7.31,0,10.97c0.13,0,0.24,0,0.34,0C8.43,22.68,9.51,22.68,10.63,22.68z M8.85,6.39
		c-0.86,0-1.56,0.39-1.88,1.05C6.48,8.43,6.91,9.6,7.93,10.02c1.15,0.48,2.5-0.05,2.85-1.12C11.21,7.61,10.28,6.39,8.85,6.39z"/>
</g>
<g id="Layer_4">
	<rect x="10.17" y="4.58" class="st9" width="10.17" height="25.43"/>
	<rect x="17.96" y="2.59" class="st9" width="7.28" height="19.2"/>
	<path class="st8" d="M20.11,30.01c0-3.44,0-6.84,0-10.26c1.11,0,2.21,0,3.34,0c0.14-1.29,0.27-2.56,0.41-3.87
		c-1.26,0-2.46,0-3.71,0c0-0.36,0-0.69,0-1.02c0-0.61,0-1.22,0-1.84c0-0.8,0.67-1.49,1.47-1.49c0.67-0.01,1.35,0,2.02,0
		c0.11,0,0.22,0,0.36,0c0-1.21,0-2.4,0-3.64c-0.1,0-0.21,0-0.32,0c-0.96,0-1.93,0-2.89,0c-2.72,0.02-4.46,1.7-4.74,4.33
		c-0.12,1.1-0.05,2.22-0.07,3.33c0,0.12,0,0.24,0,0.41c-1.13,0-2.23,0-3.35,0c0,1.36,0,2.67,0,4.02c1.1,0,2.2,0,3.33,0
		c0,3.35,0,6.67,0,10.03c-0.09,0-0.19,0-0.29,0c-2.77,0-5.53,0-8.3-0.01c-1.28-0.01-2.55-0.14-3.71-0.73
		c-1.89-0.96-3.08-2.49-3.45-4.59c-0.14-0.79-0.19-1.61-0.19-2.41c-0.02-4.87-0.01-9.73,0-14.6c0-1.19,0.05-2.37,0.5-3.49
		c0.94-2.33,2.68-3.69,5.16-4.04C6.43,0.02,7.2,0,7.95,0c4.7-0.01,9.41-0.01,14.11,0c1.22,0,2.46,0.01,3.61,0.46
		c2.41,0.93,3.8,2.71,4.17,5.27c0.08,0.57,0.11,1.16,0.11,1.74c0.01,4.93,0.02,9.86,0.02,14.79c0,1.2-0.05,2.39-0.49,3.52
		c-0.88,2.23-2.5,3.59-4.85,4.04C23.15,30.1,21.64,29.97,20.11,30.01z"/>
</g>
</svg>
