<?xml version="1.0" encoding="utf-8"?>
<!-- Generator: Adobe Illustrator 25.0.0, SVG Export Plug-In . SVG Version: 6.00 Build 0)  -->
<svg version="1.1" xmlns="http://www.w3.org/2000/svg" xmlns:xlink="http://www.w3.org/1999/xlink" x="0px" y="0px"
	 viewBox="0 0 160 130" style="enable-background:new 0 0 160 130;" xml:space="preserve">
<style type="text/css">
	.st0{display:none;}
	.st1{display:inline;}
	.st2{fill:#CCDBDB;stroke:#263E43;stroke-width:3;stroke-miterlimit:10;}
	.st3{fill:#253D42;}
	.st4{font-family:'Montserrat-SemiBold';}
	.st5{font-size:21px;}
	.st6{font-size:12px;}
	.st7{fill:#FFFFFF;}
	.st8{fill:#FFFFFF;stroke:#C7202F;stroke-width:3;stroke-miterlimit:10;}
	.st9{fill:#C7202F;}
</style>
<g id="Layer_1" class="st0">
	<g class="st1">
		<circle class="st2" cx="80" cy="65" r="55.5"/>
		<text transform="matrix(1 0 0 1 56.8882 90.7769)" class="st3 st4 st5">57°F</text>
		<text transform="matrix(1 0 0 1 67.3237 109.7769)" class="st3 st4 st6">14°C</text>
		<path class="st3" d="M113.5,52.08c-0.12,0.55-0.22,1.1-0.36,1.65c-1.3,5.15-5.99,8.91-11.29,8.92c-14.52,0.03-29.03,0.03-43.55,0
			c-6.04-0.01-11.1-4.77-11.65-10.81c-0.53-5.77,3.61-11.23,9.42-12.42c0.15-0.03,0.29-0.08,0.39-0.11
			c0.53-7.68,4.16-13.13,11.64-15.2c7.38-2.04,13.23,0.75,17.51,6.81c1.33-0.45,2.63-1.03,3.99-1.31
			c6.22-1.29,12.42,2.84,13.69,9.04c0.11,0.52,0.32,0.69,0.82,0.79c4.68,0.89,8.58,5.01,9.25,9.74c0.03,0.19,0.09,0.38,0.13,0.56
			C113.5,50.51,113.5,51.29,113.5,52.08z M60.97,43.07c-0.91,0-1.76-0.01-2.6,0c-4.28,0.06-7.8,3.56-7.81,7.78
			c-0.02,4.26,3.47,7.87,7.77,7.88c14.5,0.03,28.99,0.03,43.49,0c4.06-0.01,7.51-3.3,7.76-7.29c0.26-4.05-2.64-7.65-6.7-8.25
			c-1.04-0.15-2.11-0.12-3.22-0.18c0-0.69,0.02-1.36,0-2.03c-0.13-3-1.49-5.29-4.11-6.75c-2.95-1.65-6.52-1.17-9.02,1.13
			c-0.76,0.7-1.49,1.43-2.3,2.21c-0.37-0.94-0.7-1.79-1.04-2.63c-2.12-5.21-6.98-8.1-12.52-7.44c-6.22,0.74-10.83,6.62-10.07,12.82
			C60.7,41.21,60.83,42.09,60.97,43.07z"/>
		<path class="st7" d="M60.97,43.07c-0.13-0.98-0.27-1.86-0.37-2.74c-0.77-6.2,3.85-12.08,10.07-12.82
			c5.55-0.66,10.41,2.22,12.52,7.44c0.34,0.84,0.67,1.69,1.04,2.63c0.81-0.78,1.54-1.51,2.3-2.21c2.5-2.3,6.07-2.78,9.02-1.13
			c2.62,1.46,3.98,3.75,4.11,6.75c0.03,0.67,0,1.34,0,2.03c1.11,0.06,2.17,0.03,3.22,0.18c4.06,0.6,6.96,4.2,6.7,8.25
			c-0.26,3.98-3.7,7.28-7.76,7.29c-14.5,0.03-28.99,0.03-43.49,0c-4.3-0.01-7.79-3.61-7.77-7.88c0.02-4.21,3.54-7.72,7.81-7.78
			C59.21,43.06,60.06,43.07,60.97,43.07z"/>
	</g>
</g>
<g id="Layer_3" class="st0">
	<g class="st1">
		<circle class="st8" cx="80" cy="65" r="55.5"/>
		<text transform="matrix(1 0 0 1 56.8884 90.7769)" class="st9 st4 st5">54°F</text>
		<text transform="matrix(1 0 0 1 67.324 109.7769)" class="st9 st4 st6">12°C</text>
		<g>
			<path class="st9" d="M55.5,41.66c0.38-0.89,1.05-1.22,2.01-1.18c1.36,0.05,2.73,0.01,4.09,0.01c0.99,0,1.69,0.65,1.69,1.56
				c0,0.9-0.7,1.56-1.69,1.56c-1.36,0-2.73-0.04-4.09,0.01c-0.96,0.04-1.63-0.3-2.01-1.18C55.5,42.18,55.5,41.92,55.5,41.66z"/>
			<path class="st9" d="M80.07,67c-0.88-0.38-1.22-1.05-1.18-2.01c0.05-1.36,0.01-2.73,0.01-4.09c0-0.99,0.65-1.69,1.56-1.69
				c0.9,0,1.56,0.7,1.56,1.69c0.01,1.36-0.04,2.73,0.01,4.09c0.04,0.96-0.3,1.63-1.18,2.01C80.59,67,80.33,67,80.07,67z"/>
			<path class="st9" d="M80.43,56.08c-7.74-0.02-14.03-6.34-14.01-14.07c0.02-7.74,6.35-14.03,14.09-14
				c7.72,0.03,14,6.33,13.99,14.05C94.49,49.8,88.17,56.1,80.43,56.08z M80.46,31.13c-6.01,0-10.91,4.9-10.92,10.9
				c-0.01,6.01,4.89,10.92,10.89,10.93c6.03,0.01,10.95-4.9,10.94-10.93C91.37,36.02,86.47,31.13,80.46,31.13z"/>
			<path class="st9" d="M82.02,21.02c0,0.73,0,1.46,0,2.19c-0.01,0.99-0.67,1.69-1.57,1.68c-0.88-0.01-1.54-0.7-1.55-1.66
				c-0.01-1.49-0.01-2.99,0-4.48c0-0.96,0.66-1.65,1.55-1.65c0.9-0.01,1.56,0.7,1.57,1.68C82.02,19.52,82.02,20.27,82.02,21.02z"/>
			<path class="st9" d="M101.5,40.49c0.76,0,1.53-0.01,2.29,0c0.94,0.01,1.64,0.69,1.63,1.58c-0.01,0.87-0.7,1.53-1.61,1.54
				c-1.53,0.01-3.05,0.01-4.58,0c-0.91-0.01-1.6-0.69-1.6-1.55c0-0.87,0.68-1.55,1.59-1.56C99.97,40.48,100.73,40.49,101.5,40.49z"
				/>
			<path class="st9" d="M68.78,28.6c-0.02,0.85-0.32,1.36-0.92,1.63c-0.6,0.27-1.2,0.2-1.68-0.26c-1.16-1.13-2.32-2.28-3.44-3.44
				c-0.57-0.6-0.51-1.54,0.07-2.11c0.58-0.58,1.52-0.65,2.11-0.07c1.18,1.14,2.34,2.3,3.47,3.48C68.63,28.06,68.71,28.44,68.78,28.6
				z"/>
			<path class="st9" d="M93.73,30.44c-0.68-0.09-1.16-0.39-1.43-0.97c-0.27-0.58-0.25-1.17,0.2-1.64c1.15-1.19,2.32-2.37,3.51-3.51
				c0.58-0.55,1.51-0.49,2.08,0.06c0.58,0.57,0.67,1.52,0.1,2.11c-1.14,1.2-2.32,2.36-3.52,3.51C94.43,30.23,94.04,30.3,93.73,30.44
				z"/>
			<path class="st9" d="M67.19,53.65c0.68,0.09,1.16,0.38,1.44,0.96c0.27,0.57,0.24,1.18-0.2,1.64c-1.16,1.21-2.34,2.39-3.55,3.54
				c-0.59,0.55-1.52,0.45-2.07-0.13c-0.57-0.59-0.64-1.49-0.07-2.07c1.15-1.2,2.32-2.36,3.52-3.51
				C66.48,53.86,66.87,53.79,67.19,53.65z"/>
			<path class="st9" d="M93.77,53.63c0.34,0.19,0.75,0.31,1.02,0.57c1.12,1.06,2.2,2.16,3.28,3.26c0.65,0.67,0.65,1.59,0.02,2.22
				c-0.61,0.62-1.56,0.62-2.22-0.03c-1.1-1.08-2.19-2.17-3.27-3.27c-0.49-0.49-0.61-1.18-0.33-1.75
				C92.57,54.05,93.05,53.73,93.77,53.63z"/>
		</g>
	</g>
</g>
<g id="Layer_4" class="st0">
	<g class="st1">
		<circle class="st2" cx="80" cy="65" r="55.5"/>
		<text transform="matrix(1 0 0 1 56.8884 90.7769)" class="st3 st4 st5">61°F</text>
		<text transform="matrix(1 0 0 1 67.324 109.7769)" class="st3 st4 st6">16°C</text>
		<path class="st3" d="M107,42.06c-0.08,0.39-0.15,0.79-0.25,1.18c-0.98,3.92-4.49,6.68-8.53,6.72c-0.16,0-0.32,0-0.54,0
			c-0.62,1.61-1.23,3.22-1.88,4.9c-0.9-0.34-1.79-0.68-2.73-1.03c0.49-1.29,0.96-2.55,1.46-3.87c-1.53,0-3.01,0-4.48,0
			c-1.16,0-1.16,0-1.57,1.09c-0.48,1.26-0.96,2.51-1.45,3.82c-0.92-0.35-1.8-0.69-2.73-1.04c0.49-1.28,0.96-2.54,1.45-3.84
			c-0.16-0.01-0.28-0.02-0.4-0.02c-1.61,0-3.22,0.01-4.82-0.01c-0.31,0-0.45,0.09-0.56,0.38c-0.5,1.36-1.02,2.7-1.54,4.05
			c-0.06,0.15-0.12,0.29-0.2,0.48c-0.92-0.35-1.8-0.69-2.71-1.04c0.49-1.29,0.96-2.55,1.46-3.87c-1.03,0-1.99,0-2.96,0
			c-0.75,0-1.49,0.02-2.24-0.01c-0.33-0.01-0.48,0.09-0.59,0.4c-0.55,1.49-1.12,2.97-1.71,4.51c-0.91-0.35-1.8-0.68-2.73-1.03
			c0.49-1.29,0.97-2.56,1.46-3.87c-0.81,0-1.55,0-2.3,0c-5-0.03-8.95-4.09-8.83-9.08c0.09-3.89,3.03-7.4,6.93-8.24
			c0.39-0.08,0.48-0.23,0.48-0.6c0.12-5.75,4.71-10.73,10.44-11.24c4.72-0.42,8.4,1.42,11.08,5.32c0.05,0.08,0.11,0.16,0.13,0.19
			c0.89-0.33,1.73-0.72,2.61-0.95c4.72-1.2,9.63,1.89,10.61,6.66c0.08,0.38,0.22,0.52,0.6,0.6c3.5,0.66,6.41,3.74,6.91,7.26
			c0.02,0.14,0.06,0.28,0.1,0.42C107,40.89,107,41.48,107,42.06z M96.67,35.25c0-0.46,0.01-0.94,0-1.43
			c-0.07-2.06-0.94-3.69-2.66-4.83c-2.32-1.53-5.23-1.22-7.29,0.74c-0.51,0.49-1.01,0.99-1.56,1.53c-0.28-0.71-0.53-1.35-0.78-1.97
			c-1.83-4.49-6.56-6.71-11.05-5.15c-4.41,1.53-6.35,5.92-5.81,9.21c0.11,0.65,0.18,1.3,0.29,2.07c-0.95,0-1.85-0.1-2.73,0.02
			c-3.04,0.39-5.24,3.12-5.04,6.16c0.19,2.97,2.77,5.43,5.79,5.43c10.82,0.02,21.63,0.02,32.45,0c2.97,0,5.46-2.32,5.78-5.3
			c0.3-2.8-1.64-5.54-4.47-6.18C98.66,35.34,97.69,35.35,96.67,35.25z"/>
		<path class="st3" d="M69.01,63.33c0.84-2.22,1.67-4.38,2.51-6.58c0.92,0.35,1.81,0.69,2.73,1.04c-0.83,2.19-1.66,4.35-2.5,6.57
			C70.84,64.02,69.96,63.68,69.01,63.33z"/>
		<path class="st3" d="M77.78,63.32c0.84-2.22,1.67-4.38,2.51-6.58c0.92,0.35,1.81,0.69,2.73,1.04c-0.83,2.19-1.66,4.35-2.5,6.58
			C79.61,64.01,78.73,63.68,77.78,63.32z"/>
		<path class="st3" d="M89.29,64.35c-0.93-0.35-1.8-0.68-2.73-1.04c0.84-2.2,1.66-4.36,2.5-6.58c0.93,0.35,1.81,0.69,2.73,1.04
			C90.96,59.97,90.14,62.13,89.29,64.35z"/>
		<path class="st7" d="M96.67,35.25c1.02,0.1,1.99,0.09,2.92,0.3c2.83,0.64,4.77,3.38,4.47,6.18c-0.32,2.97-2.8,5.29-5.78,5.3
			c-10.82,0.02-21.63,0.02-32.45,0c-3.02,0-5.61-2.47-5.79-5.43c-0.19-3.04,2.01-5.77,5.04-6.16c0.88-0.11,1.78-0.02,2.73-0.02
			c-0.1-0.77-0.18-1.42-0.29-2.07c-0.54-3.29,1.41-7.68,5.81-9.21c4.48-1.56,9.22,0.66,11.05,5.15c0.26,0.63,0.5,1.26,0.78,1.97
			c0.55-0.54,1.05-1.04,1.56-1.53c2.06-1.96,4.98-2.27,7.29-0.74c1.72,1.14,2.59,2.77,2.66,4.83
			C96.68,34.31,96.67,34.79,96.67,35.25z"/>
	</g>
</g>
<g id="Layer_7" class="st0">
	<g class="st1">
		<circle class="st2" cx="80" cy="65" r="55.5"/>
		<text transform="matrix(1 0 0 1 56.8882 90.7769)" class="st3 st4 st5">52°F</text>
		<text transform="matrix(1 0 0 1 67.3237 109.7769)" class="st3 st4 st6">11°C</text>
		<path class="st3" d="M55.5,41.66c0.38-0.89,1.05-1.22,2.01-1.18c1.36,0.05,2.73,0.01,4.1,0.01c0.99,0,1.7,0.65,1.7,1.56
			c0,0.9-0.7,1.56-1.7,1.56c-1.37,0-2.73-0.04-4.1,0.01c-0.96,0.04-1.63-0.3-2.02-1.18C55.5,42.18,55.5,41.92,55.5,41.66z"/>
		<path class="st3" d="M105.5,42.44c-0.38,0.88-1.05,1.22-2.02,1.18c-1.36-0.05-2.73-0.01-4.1-0.01c-0.99,0-1.7-0.66-1.7-1.56
			c0-0.91,0.7-1.55,1.7-1.56c1.37,0,2.74,0.04,4.1-0.01c0.96-0.04,1.63,0.3,2.02,1.18C105.5,41.92,105.5,42.18,105.5,42.44z"/>
		<path class="st3" d="M80.11,67c-0.88-0.38-1.22-1.05-1.18-2.01c0.05-1.36,0.01-2.73,0.01-4.09c0-0.99,0.65-1.69,1.56-1.69
			c0.9,0,1.56,0.7,1.56,1.69c0.01,1.36-0.04,2.73,0.01,4.09c0.04,0.96-0.3,1.63-1.18,2.01C80.63,67,80.37,67,80.11,67z"/>
		<path class="st3" d="M80.48,56.08c-7.75-0.01-14.06-6.33-14.04-14.07c0.02-7.74,6.35-14.03,14.1-14.01
			c7.74,0.02,14.02,6.32,14.02,14.04C94.56,49.79,88.23,56.09,80.48,56.08z M91.44,42.04c0-6.01-4.91-10.91-10.93-10.91
			c-6.02,0-10.94,4.89-10.95,10.9c-0.01,6.03,4.91,10.95,10.95,10.94C86.53,52.96,91.44,48.05,91.44,42.04z"/>
		<path class="st3" d="M78.94,20.98c0-0.75-0.01-1.49,0-2.24c0.01-0.95,0.67-1.64,1.56-1.64c0.89,0,1.56,0.69,1.56,1.64
			c0.01,1.51,0.01,3.02,0,4.53c-0.01,0.94-0.7,1.63-1.58,1.62c-0.87-0.01-1.53-0.7-1.54-1.62C78.93,22.5,78.94,21.74,78.94,20.98z"
			/>
		<path class="st3" d="M68.8,28.59c-0.02,0.85-0.32,1.36-0.92,1.63c-0.6,0.27-1.2,0.2-1.68-0.26c-1.17-1.13-2.32-2.28-3.45-3.44
			c-0.58-0.6-0.51-1.54,0.07-2.11c0.58-0.58,1.52-0.65,2.12-0.07c1.18,1.14,2.34,2.3,3.48,3.48C68.65,28.05,68.73,28.43,68.8,28.59z
			"/>
		<path class="st3" d="M93.77,30.44c-0.69-0.09-1.16-0.4-1.42-0.98c-0.26-0.56-0.24-1.15,0.19-1.6c1.17-1.22,2.36-2.42,3.59-3.58
			c0.56-0.53,1.5-0.43,2.04,0.11c0.57,0.56,0.66,1.5,0.11,2.08c-1.15,1.21-2.35,2.39-3.56,3.54C94.49,30.24,94.09,30.3,93.77,30.44z
			"/>
		<path class="st3" d="M67.2,53.65c0.69,0.09,1.17,0.39,1.44,0.97c0.27,0.57,0.24,1.18-0.2,1.64c-1.16,1.21-2.34,2.39-3.56,3.54
			c-0.59,0.55-1.52,0.45-2.07-0.13c-0.57-0.59-0.64-1.49-0.07-2.07c1.14-1.18,2.3-2.34,3.49-3.48C66.48,53.88,66.87,53.8,67.2,53.65
			z"/>
		<path class="st3" d="M92.12,55.34c0.09-0.69,0.38-1.17,0.96-1.45c0.59-0.28,1.21-0.24,1.68,0.22c1.18,1.14,2.35,2.3,3.48,3.48
			c0.58,0.6,0.51,1.52-0.08,2.11c-0.58,0.58-1.52,0.64-2.12,0.06c-1.17-1.13-2.32-2.28-3.44-3.45
			C92.37,56.05,92.28,55.66,92.12,55.34z"/>
		<path class="st7" d="M91.44,42.04c0,6.01-4.9,10.91-10.92,10.92c-6.04,0.01-10.96-4.91-10.95-10.94
			c0.01-6.01,4.92-10.9,10.95-10.9C86.53,31.13,91.44,36.03,91.44,42.04z"/>
	</g>
</g>
<g id="Layer_5" class="st0">
	<g class="st1">
		<circle class="st2" cx="80" cy="65" r="55.5"/>
		<text transform="matrix(1 0 0 1 56.8884 90.7769)" class="st3 st4 st5">60°F</text>
		<text transform="matrix(1 0 0 1 67.324 109.7769)" class="st3 st4 st6">15°C</text>
		<path class="st3" d="M105.5,42.43c-0.38,0.88-1.05,1.22-2.01,1.18c-1.36-0.05-2.73-0.01-4.09-0.01c-0.99,0-1.69-0.66-1.69-1.56
			c0-0.91,0.7-1.55,1.69-1.56c1.36,0,2.73,0.04,4.09-0.01c0.96-0.04,1.63,0.3,2.01,1.18C105.5,41.91,105.5,42.17,105.5,42.43z"/>
		<path class="st3" d="M80.16,67c-0.88-0.38-1.22-1.05-1.18-2.01c0.05-1.36,0.01-2.73,0.01-4.09c0-0.99,0.65-1.69,1.56-1.69
			c0.9,0,1.56,0.7,1.56,1.69c0.01,1.36-0.04,2.73,0.01,4.09c0.04,0.96-0.3,1.63-1.18,2.01C80.68,67,80.42,67,80.16,67z"/>
		<path class="st3" d="M80.53,56.08c-7.74-0.01-14.04-6.33-14.02-14.07c0.02-7.74,6.34-14.03,14.08-14.01
			c7.72,0.02,14,6.32,14,14.04C94.58,49.79,88.27,56.09,80.53,56.08z M91.46,42.05c0-6.01-4.89-10.91-10.9-10.92
			c-6.01-0.01-10.92,4.88-10.93,10.89c-0.01,6.03,4.89,10.95,10.92,10.95C86.56,52.96,91.46,48.06,91.46,42.05z"/>
		<path class="st3" d="M82.11,21c0,0.75,0.01,1.49,0,2.24c-0.01,0.95-0.68,1.64-1.56,1.64c-0.88,0-1.55-0.7-1.55-1.65
			c-0.01-1.49-0.01-2.99,0-4.48c0-0.96,0.65-1.65,1.54-1.66c0.9-0.01,1.57,0.69,1.58,1.67C82.11,19.51,82.11,20.25,82.11,21z"/>
		<path class="st3" d="M59.49,43.6c-0.75,0-1.49,0.01-2.24,0c-0.95-0.01-1.65-0.66-1.66-1.55c-0.01-0.89,0.68-1.56,1.63-1.57
			c1.51-0.01,3.02-0.01,4.53,0c0.94,0,1.64,0.68,1.63,1.57c-0.01,0.88-0.7,1.54-1.66,1.55C60.99,43.61,60.24,43.6,59.49,43.6z"/>
		<path class="st3" d="M68.87,28.62c-0.03,0.83-0.32,1.32-0.9,1.59c-0.59,0.28-1.2,0.23-1.68-0.23c-1.18-1.14-2.34-2.3-3.48-3.48
			c-0.56-0.58-0.49-1.51,0.06-2.08c0.57-0.59,1.51-0.67,2.11-0.1c1.2,1.14,2.36,2.32,3.51,3.52C68.73,28.07,68.8,28.45,68.87,28.62z
			"/>
		<path class="st3" d="M93.79,30.43c-0.66-0.09-1.12-0.39-1.39-0.94c-0.28-0.57-0.27-1.18,0.17-1.64c1.16-1.21,2.34-2.39,3.54-3.55
			c0.58-0.55,1.52-0.47,2.08,0.09c0.56,0.56,0.65,1.5,0.1,2.08c-1.15,1.21-2.34,2.39-3.55,3.54C94.5,30.24,94.11,30.3,93.79,30.43z"
			/>
		<path class="st3" d="M67.27,53.65c0.68,0.09,1.17,0.38,1.44,0.96c0.27,0.57,0.25,1.18-0.2,1.64c-1.16,1.21-2.34,2.39-3.55,3.55
			c-0.59,0.56-1.52,0.46-2.07-0.12c-0.57-0.59-0.64-1.49-0.08-2.07c1.14-1.2,2.32-2.37,3.51-3.51
			C66.57,53.86,66.95,53.79,67.27,53.65z"/>
		<path class="st3" d="M92.14,55.35c0.1-0.7,0.39-1.18,0.96-1.46c0.59-0.29,1.2-0.25,1.68,0.21c1.18,1.14,2.34,2.29,3.48,3.48
			c0.59,0.61,0.51,1.56-0.1,2.15c-0.59,0.56-1.51,0.59-2.12,0c-1.14-1.11-2.27-2.23-3.37-3.38C92.42,56.08,92.31,55.68,92.14,55.35z
			"/>
		<path class="st7" d="M91.46,42.05c0,6.01-4.9,10.91-10.91,10.91c-6.03,0-10.94-4.91-10.92-10.95c0.01-6.01,4.92-10.9,10.93-10.89
			C86.57,31.13,91.47,36.03,91.46,42.05z"/>
	</g>
</g>
<g id="Layer_6" class="st0">
	<g class="st1">
		<circle class="st2" cx="80" cy="65" r="55.5"/>
		<text transform="matrix(1 0 0 1 57.7908 90.7769)" class="st3 st4 st5">51°F</text>
		<text transform="matrix(1 0 0 1 67.3235 109.7769)" class="st3 st4 st6">10°C</text>
		<path class="st3" d="M46.5,49.73c0.12-0.55,0.2-1.11,0.36-1.64c1.32-4.64,4.37-7.5,9.02-8.65c0.43-0.11,0.55-0.25,0.56-0.68
			c0.23-8.88,7.77-15.83,16.61-15.24c5.14,0.34,9.17,2.75,12.09,6.99c0.12,0.18,0.24,0.36,0.28,0.42c1.41-0.47,2.74-1.05,4.12-1.34
			c6.15-1.27,12.36,2.88,13.63,9.05c0.09,0.42,0.19,0.68,0.68,0.77c5.32,1.03,9.37,5.75,9.51,11.05c0.15,5.53-3.51,10.45-8.84,11.78
			c-1,0.25-2.06,0.39-3.09,0.4c-14.34,0.03-28.68,0.03-43.03,0.01c-5.97-0.01-10.87-4.25-11.79-10.14
			c-0.02-0.15-0.08-0.29-0.12-0.43C46.5,51.29,46.5,50.51,46.5,49.73z M60.84,43.07c-0.91,0-1.76-0.01-2.6,0
			c-4.28,0.06-7.8,3.56-7.81,7.78c-0.02,4.26,3.47,7.87,7.77,7.88c14.5,0.03,28.99,0.03,43.49,0c4.06-0.01,7.51-3.3,7.76-7.29
			c0.26-4.05-2.64-7.65-6.7-8.25c-1.04-0.15-2.11-0.12-3.22-0.18c0-0.69,0.02-1.36,0-2.03c-0.13-3-1.49-5.29-4.11-6.75
			c-2.95-1.65-6.52-1.17-9.02,1.13c-0.76,0.7-1.49,1.43-2.3,2.21c-0.37-0.94-0.7-1.79-1.04-2.63c-2.12-5.21-6.98-8.1-12.52-7.44
			c-6.22,0.74-10.83,6.62-10.07,12.82C60.57,41.21,60.7,42.09,60.84,43.07z"/>
		<path class="st7" d="M60.84,43.07c-0.13-0.98-0.27-1.86-0.37-2.74c-0.77-6.2,3.85-12.08,10.07-12.82
			c5.55-0.66,10.41,2.22,12.52,7.44c0.34,0.84,0.67,1.69,1.04,2.63c0.81-0.78,1.54-1.51,2.3-2.21c2.5-2.3,6.07-2.78,9.02-1.13
			c2.62,1.46,3.98,3.75,4.11,6.75c0.03,0.67,0,1.34,0,2.03c1.11,0.06,2.17,0.03,3.22,0.18c4.06,0.6,6.96,4.2,6.7,8.25
			c-0.26,3.98-3.7,7.28-7.76,7.29c-14.5,0.03-28.99,0.03-43.49,0c-4.3-0.01-7.79-3.61-7.77-7.88c0.02-4.21,3.54-7.72,7.81-7.78
			C59.08,43.06,59.93,43.07,60.84,43.07z"/>
	</g>
</g>
<g id="Layer_8" class="st0">
	<g class="st1">
		<circle class="st2" cx="80" cy="65" r="55.5"/>
		<text transform="matrix(1 0 0 1 56.8884 90.7769)" class="st3 st4 st5">53°F</text>
		<text transform="matrix(1 0 0 1 67.324 109.7769)" class="st3 st4 st6">12°C</text>
		<g>
			<path class="st3" d="M55.5,41.66c0.38-0.89,1.05-1.22,2.01-1.18c1.36,0.05,2.73,0.01,4.09,0.01c0.99,0,1.69,0.65,1.69,1.56
				c0,0.9-0.7,1.56-1.69,1.56c-1.36,0-2.73-0.04-4.09,0.01c-0.96,0.04-1.63-0.3-2.01-1.18C55.5,42.18,55.5,41.92,55.5,41.66z"/>
			<path class="st3" d="M80.07,67c-0.88-0.38-1.22-1.05-1.18-2.01c0.05-1.36,0.01-2.73,0.01-4.09c0-0.99,0.65-1.69,1.56-1.69
				c0.9,0,1.56,0.7,1.56,1.69c0.01,1.36-0.04,2.73,0.01,4.09c0.04,0.96-0.3,1.63-1.18,2.01C80.59,67,80.33,67,80.07,67z"/>
			<path class="st3" d="M80.43,56.08c-7.74-0.02-14.03-6.34-14.01-14.07c0.02-7.74,6.35-14.03,14.09-14
				c7.72,0.03,14,6.33,13.99,14.05C94.49,49.8,88.17,56.1,80.43,56.08z M80.46,31.13c-6.01,0-10.91,4.9-10.92,10.9
				c-0.01,6.01,4.89,10.92,10.89,10.93c6.03,0.01,10.95-4.9,10.94-10.93C91.37,36.02,86.47,31.13,80.46,31.13z"/>
			<path class="st3" d="M82.02,21.02c0,0.73,0,1.46,0,2.19c-0.01,0.99-0.67,1.69-1.57,1.68c-0.88-0.01-1.54-0.7-1.55-1.66
				c-0.01-1.49-0.01-2.99,0-4.48c0-0.96,0.66-1.65,1.55-1.65c0.9-0.01,1.56,0.7,1.57,1.68C82.02,19.52,82.02,20.27,82.02,21.02z"/>
			<path class="st3" d="M101.5,40.49c0.76,0,1.53-0.01,2.29,0c0.94,0.01,1.64,0.69,1.63,1.58c-0.01,0.87-0.7,1.53-1.61,1.54
				c-1.53,0.01-3.05,0.01-4.58,0c-0.91-0.01-1.6-0.69-1.6-1.55c0-0.87,0.68-1.55,1.59-1.56C99.97,40.48,100.73,40.49,101.5,40.49z"
				/>
			<path class="st3" d="M68.78,28.6c-0.02,0.85-0.32,1.36-0.92,1.63c-0.6,0.27-1.2,0.2-1.68-0.26c-1.16-1.13-2.32-2.28-3.44-3.44
				c-0.57-0.6-0.51-1.54,0.07-2.11c0.58-0.58,1.52-0.65,2.11-0.07c1.18,1.14,2.34,2.3,3.47,3.48C68.63,28.06,68.71,28.44,68.78,28.6
				z"/>
			<path class="st3" d="M93.73,30.44c-0.68-0.09-1.16-0.39-1.43-0.97c-0.27-0.58-0.25-1.17,0.2-1.64c1.15-1.19,2.32-2.37,3.51-3.51
				c0.58-0.55,1.51-0.49,2.08,0.06c0.58,0.57,0.67,1.52,0.1,2.11c-1.14,1.2-2.32,2.36-3.52,3.51C94.43,30.23,94.04,30.3,93.73,30.44
				z"/>
			<path class="st3" d="M67.19,53.65c0.68,0.09,1.16,0.38,1.44,0.96c0.27,0.57,0.24,1.18-0.2,1.64c-1.16,1.21-2.34,2.39-3.55,3.54
				c-0.59,0.55-1.52,0.45-2.07-0.13c-0.57-0.59-0.64-1.49-0.07-2.07c1.15-1.2,2.32-2.36,3.52-3.51
				C66.48,53.86,66.87,53.79,67.19,53.65z"/>
			<path class="st3" d="M93.77,53.63c0.34,0.19,0.75,0.31,1.02,0.57c1.12,1.06,2.2,2.16,3.28,3.26c0.65,0.67,0.65,1.59,0.02,2.22
				c-0.61,0.62-1.56,0.62-2.22-0.03c-1.1-1.08-2.19-2.17-3.27-3.27c-0.49-0.49-0.61-1.18-0.33-1.75
				C92.57,54.05,93.05,53.73,93.77,53.63z"/>
			<path class="st7" d="M80.46,31.13c6.01,0,10.91,4.89,10.92,10.9c0.01,6.03-4.91,10.94-10.94,10.93
				c-6.01-0.01-10.9-4.92-10.89-10.93C69.54,36.03,74.45,31.13,80.46,31.13z"/>
		</g>
	</g>
</g>
<g id="Layer_9" class="st0">
	<g class="st1">
		<circle class="st7" cx="82.51" cy="61.33" r="44.17"/>
		<path class="st3" d="M160,121.49c-0.42,1.17-0.73,2.39-1.28,3.49c-1.25,2.46-3.13,4.26-6.04,4.28c-2.92,0.02-4.96-1.7-6.04-4.22
			c-0.76-1.77-1.32-3.8-1.27-5.7c0.2-7.75,0.58-15.51,1.06-23.25c0.6-9.51,1.36-19,2.05-28.51c0.02-0.31,0-0.62,0-1.1
			c-0.67-0.03-1.32-0.04-1.97-0.1c-2.83-0.24-4.81-1.97-4.79-4.79c0.09-11.03-0.81-22.09,0.75-33.07
			c1.41-9.92,5.31-18.88,11.29-26.91c0.38-0.51,1.41-1.03,1.87-0.85c0.5,0.19,0.94,1.19,0.96,1.85c0.1,3.02,0.04,6.04,0.04,9.06
			c0,16.82-0.12,33.65,0.06,50.47c0.07,6.55,0.8,13.09,1.21,19.63c0.5,7.9,0.98,15.8,1.48,23.7c0.2,3.16,0.41,6.31,0.62,9.47
			C160,117.11,160,119.3,160,121.49z"/>
		<path class="st3" d="M82.52,8.94c29.12,0.12,52.96,23.27,52.98,52.97c0.02,29.54-23.64,52.89-52.94,52.99
			c-29.19,0.1-52.95-23.71-52.99-52.96C29.53,32.76,53.29,8.98,82.52,8.94z M122.77,61.95c0.03-22.06-17.98-40.1-40.14-40.21
			C60.51,21.63,42.38,39.7,42.34,61.91c-0.04,22.08,17.97,40.14,40.09,40.21C104.56,102.19,122.74,84.09,122.77,61.95z"/>
		<path class="st3" d="M6.91,107.97c1.09-14.12,2.17-28.23,3.26-42.35c0.12-1.61,0.32-3.21,0.39-4.82c0.12-2.87-0.96-5.27-3.35-6.83
			c-5.74-3.74-7.7-8.93-7.1-15.65c0.83-9.33,1.18-18.7,1.75-28.06c0.04-0.72,0.1-1.46,0.26-2.16c0.26-1.18,1.11-1.74,2.28-1.73
			C5.57,6.38,6.36,7.01,6.6,8.18c0.1,0.5,0.11,1.03,0.08,1.55C6.29,18,5.88,26.27,5.48,34.54c-0.1,2.06,0.92,3.37,2.58,3.41
			c1.62,0.04,2.73-1.21,2.78-3.29c0.22-8.23,0.42-16.45,0.62-24.68c0.01-0.42,0-0.84,0.05-1.25c0.18-1.47,1.21-2.41,2.6-2.38
			c1.32,0.03,2.33,0.92,2.44,2.35c0.14,1.82,0.19,3.64,0.23,5.46c0.15,6.51,0.29,13.02,0.44,19.52c0.02,0.67,0.07,1.35,0.18,2.02
			c0.24,1.46,1.23,2.22,2.6,2.2c1.38-0.01,2.33-0.81,2.57-2.26c0.07-0.41,0.08-0.83,0.06-1.24c-0.41-8.32-0.82-16.64-1.23-24.96
			c-0.09-1.95,0.72-3.04,2.26-3.1c1.51-0.05,2.4,0.98,2.52,2.93c0.62,10.03,1.17,20.06,1.87,30.09c0.43,6.17-1.69,10.95-6.9,14.38
			c-2.83,1.86-3.85,4.6-3.61,7.95c1.15,15.52,2.29,31.04,3.34,46.57c0.29,4.3,0.43,8.64,0.28,12.94c-0.06,1.66-0.85,3.46-1.78,4.89
			c-2.73,4.25-7.85,4.2-10.74,0.06c-1.53-2.18-1.97-4.64-1.94-7.25c0.04-3.64,0.01-7.28,0.01-10.93
			C6.79,107.99,6.85,107.98,6.91,107.97z"/>
		<path class="st3" d="M82.59,32.48c16.26,0.1,29.39,13.3,29.34,29.5c-0.05,16.24-13.33,29.5-29.45,29.4
			C66.19,91.28,52.93,77.9,53.1,61.72C53.27,45.55,66.55,32.39,82.59,32.48z"/>
	</g>
</g>
<g id="Layer_10" class="st0">
	<g class="st1">
		<path class="st3" d="M91.49,38.31c-0.02-0.52-0.06-0.95-0.06-1.38c0-5.23-0.05-10.46,0.01-15.7c0.05-4.62-1.17-8.82-3.86-12.58
			c-0.07-0.1-0.15-0.21-0.2-0.32c-0.03-0.07-0.03-0.16-0.08-0.41c2.36-0.33,4.67-0.3,6.93,0.49c5.02,1.77,8.49,6.36,8.59,11.69
			c0.11,5.82,0.04,11.64,0.04,17.47c0,0.33-0.11,0.66-0.17,0.99c2.57-0.03,5.14-0.06,7.71-0.1c0.04-1.22,0.1-2.44,0.1-3.66
			c0.01-4.69,0.05-9.37-0.01-14.05c-0.11-10.11-6.64-18.17-16.41-20.14c-4.47-0.9-8.89-0.55-13.17,1.19
			c-0.53,0.22-1.32,0.22-1.85-0.01C66.16-3.71,51.47,5.35,50.85,19.37c-0.27,6.11-0.07,12.24-0.08,18.36c0,0.25,0.08,0.5,0.13,0.74
			l-0.05-0.05c2.58,0.04,5.15,0.09,7.73,0.13c-0.06-0.41-0.17-0.82-0.17-1.24c-0.01-5.57-0.06-11.14,0.01-16.71
			c0.09-7.31,5.75-12.89,12.88-12.8c0.45,0.01,0.89,0.08,1.51,0.13c-0.26,0.44-0.42,0.71-0.6,0.98c-2.32,3.4-3.6,7.13-3.62,11.26
			c-0.04,6.12-0.04,12.23-0.06,18.35c2.59,0.01,5.19,0.02,7.78,0.03c-0.04-0.46-0.11-0.92-0.11-1.38c0-5.65-0.04-11.3,0.02-16.95
			c0.03-3.35,1.33-6.21,3.74-8.7c1.94,1.75,3.02,3.93,3.57,6.39c0.18,0.82,0.27,1.67,0.27,2.51c0.02,5.65,0.02,11.3,0.01,16.95
			c0,0.28-0.04,0.55-0.08,0.94L91.49,38.31z"/>
		<path class="st3" d="M91.49,38.35c3.05,0,5.95-0.01,8.86,0.01c0.79,0.01,1.57,0.11,2.36,0.17c0.05,0.45,0.15,0.9,0.15,1.35
			c0.01,4.08,0.01,8.17,0.01,12.25c0,0.45,0,0.9,0,1.38c2.62,0,5.08,0,7.64,0c0-4,0.01-7.91-0.01-11.82c0-1.09-0.08-2.17-0.13-3.26
			c5.04,0,10.09,0,15.23,0c0.11,2.56,0.22,5.04,0.33,7.52c0.64,14.03,1.29,28.06,1.93,42.09c0.54,11.97,1.08,23.93,1.61,35.9
			c0.09,1.98,0.12,3.95,0.17,5.93c-23.73,0-47.46,0-71.19,0c-0.02-0.38-0.06-0.76-0.06-1.13c0-29.66,0-59.32,0-88.98
			c0-0.41,0.1-0.82,0.15-1.23c3.33-0.02,6.67-0.03,10.01-0.05c0,5,0,10,0,15.03c2.62,0,5.08,0,7.62,0c0-1.26-0.01-2.44,0-3.61
			c0.03-3.79,0.06-7.58,0.09-11.36c0.49-0.06,0.98-0.17,1.47-0.17c1.97-0.02,3.95-0.01,5.97-0.01"/>
		<path class="st3" d="M30.35,129.88c0.06-1.98,0.08-3.96,0.17-5.93c0.44-10.07,0.89-20.15,1.35-30.22
			c0.56-12.22,1.12-24.44,1.68-36.66c0.27-5.82,0.53-11.63,0.8-17.45c0.02-0.37,0.05-0.74,0.08-1.19c0.47-0.03,0.88-0.07,1.29-0.07
			c4.6,0,9.2-0.01,13.8,0c0.46,0,0.92,0.07,1.38,0.11c0,0-0.05-0.05-0.05-0.05c-0.03,0.46-0.08,0.92-0.08,1.38
			c0,29.57,0,59.13,0,88.7c0,0.46,0.06,0.92,0.1,1.38C44.03,129.88,37.19,129.88,30.35,129.88z"/>
	</g>
</g>
<g id="Layer_11">
	<g>
		<path class="st3" d="M0,10.91c3.42,0,6.84,0,10.43,0c0,18.75,0,37.17,0,55.78c49.95,0,99.73,0,149.57,0c0,17.46,0,45.94,0,63.31
			c-3.43,0-6.78,0-10.34,0c0-0.67,0-12.48,0-13.08c0-8.08-0.03-16.15,0.03-24.23c0.01-1.3-0.36-1.66-1.66-1.66
			c-45.33,0.03-90.65,0.03-135.98,0c-1.29,0-1.68,0.34-1.67,1.65c0.06,8.07,0.03,16.15,0.03,24.23c0,0.62,0,12.15,0,13.09
			c-3.57,0-6.99,0-10.41,0C0,93.94,0,46.97,0,10.91z"/>
		<path class="st3" d="M49.03,63.11c0-6.5-0.34-12.92,0.11-19.28c0.35-4.93,3.77-7.71,8.71-8.3c0.88-0.1,1.77-0.16,2.65-0.16
			c26.93-0.01,53.87-0.01,80.8-0.01c3.31,0,6.42,0.51,8.88,3.05c1.52,1.57,2.52,3.49,2.58,5.56c0.17,6.33,0.06,12.68,0.06,19.14
			C118.29,63.11,83.62,63.11,49.03,63.11z"/>
		<path class="st3" d="M27.85,63.86c-8,0.03-14.69-6.67-14.59-14.6c0.1-7.99,6.61-14.49,14.55-14.53
			c7.93-0.04,14.69,6.74,14.6,14.64C42.32,57.37,35.82,63.84,27.85,63.86z"/>
	</g>
</g>
<g id="Layer_12" class="st0">
	<g class="st1">
		<path class="st3" d="M157.7,35.87c0,27.52,0,55.03,0,82.55c-0.09,0.23-0.2,0.46-0.26,0.7c-1.59,6.94-6.79,11.13-13.9,11.13
			c-42.37,0.01-84.75,0.01-127.12,0c-8.17,0-14.09-5.91-14.1-14.05C2.3,90.16,2.3,64.12,2.33,38.08c0-1.3,0.15-2.64,0.48-3.89
			c1.63-6.22,6.98-10.15,13.76-10.15c32.72-0.01,65.43,0,98.15,0c9.71,0,19.42-0.05,29.13,0.02c5.86,0.04,10.11,2.81,12.64,8.1
			C157.04,33.31,157.3,34.62,157.7,35.87z M79.97,110.83c18.56,0.01,33.7-15.1,33.72-33.66c0.01-18.56-15.1-33.7-33.66-33.71
			c-18.56-0.01-33.7,15.1-33.72,33.65C46.3,95.67,61.42,110.81,79.97,110.83z M33.88,52.56c2.27,0,4.54,0.01,6.81,0
			c2.95-0.02,4.99-1.87,5.01-4.52c0.02-2.65-2.03-4.57-4.95-4.58c-4.59-0.01-9.18-0.02-13.78,0c-2.91,0.01-4.96,1.94-4.93,4.59
			c0.03,2.59,2.06,4.48,4.87,4.5C29.23,52.57,31.56,52.56,33.88,52.56z"/>
		<path class="st3" d="M44.06,14.85c0.69-3.14,1.16-6.25,2.08-9.22c1.08-3.48,4.56-5.86,8.23-5.86c17.08-0.03,34.16-0.03,51.24,0
			c3.75,0.01,7.23,2.44,8.3,5.99c0.88,2.93,1.35,5.99,2.02,9.09C91.93,14.85,68.09,14.85,44.06,14.85z"/>
		<path class="st3" d="M55.42,77.07C55.44,63.51,66.5,52.52,80.1,52.56c13.56,0.04,24.54,11.12,24.48,24.72
			c-0.06,13.5-11.09,24.45-24.61,24.44C66.4,101.71,55.4,90.67,55.42,77.07z"/>
	</g>
</g>
<g id="Layer_13" class="st0">
	<g class="st1">
		<path class="st3" d="M127.19,129.91c-31.46,0-62.92,0-94.38,0c-1.99-0.86-4.19-1.42-5.94-2.64c-3.84-2.69-5.35-6.62-5.34-11.3
			c0.07-29.72,0.06-59.44,0.09-89.16c0-0.51,0.01-1.01,0.02-1.52c0.19-5.4,4.25-10.63,9.54-11.75c2.65-0.56,5.45-0.39,8.19-0.55
			c0.52-0.03,1.05,0,1.68,0c0-4.43,0-8.65,0-12.89c4.36,0,8.6,0,13.01,0c0,4.32,0,8.56,0,12.79c17.38,0,34.61,0,51.94,0
			c0-4.32,0-8.53,0-12.79c4.36,0,8.6,0,13.01,0c0,4.31,0,8.55,0,12.9c2.18,0,4.2-0.02,6.22,0c4.12,0.06,7.54,1.6,10.21,4.77
			c2.23,2.66,3.02,5.74,3.02,9.17c-0.03,29.68-0.02,59.36-0.02,89.04c0,0.72-0.01,1.44-0.07,2.15c-0.3,3.4-1.82,6.18-4.32,8.48
			C132.1,128.4,129.71,129.29,127.19,129.91z M125.4,45.55c-30.35,0-60.55,0-90.75,0c0,23.83,0,47.56,0,71.3c30.3,0,60.51,0,90.75,0
			C125.4,93.05,125.4,69.35,125.4,45.55z"/>
		<path class="st3" d="M70.81,103.68c-6.8-6.8-13.61-13.61-20.34-20.34c2.21-2.2,4.47-4.45,6.8-6.76c4.4,4.42,8.93,8.97,13.45,13.51
			c10.58-10.59,21.09-21.1,31.49-31.51c2.41,2.42,4.67,4.68,6.85,6.86C96.43,78.07,83.62,90.88,70.81,103.68z"/>
	</g>
</g>
</svg>
